<?xml version="1.0" encoding="utf-8"?>
<!-- Generator: Adobe Illustrator 19.1.0, SVG Export Plug-In . SVG Version: 6.00 Build 0)  -->
<svg version="1.1" id="Layer_1" xmlns="http://www.w3.org/2000/svg" xmlns:xlink="http://www.w3.org/1999/xlink" x="0px" y="0px"
	 viewBox="-172 113 175 175" style="enable-background:new -172 113 175 175;" xml:space="preserve">
<style type="text/css">
	.st0{fill:#FFFFFF;stroke:#179FE5;stroke-width:3;stroke-miterlimit:10;}
	.st1{fill:#FFFFFF;stroke:#179FE5;stroke-width:3;stroke-linecap:round;stroke-linejoin:round;stroke-miterlimit:10;}
	.st2{fill:#179FE5;}
	.st3{display:none;}
	.st4{display:inline;}
	.st5{fill:#FECC00;}
	.st6{fill:#179FE5;stroke:#179FE5;stroke-miterlimit:10;}
</style>
<g id="Layer_1_1_">
	<circle class="st0" cx="-84.5" cy="200.5" r="85"/>
</g>
<g>
	<path class="st1" d="M-141.9,218.2c1.3,6.3,4.4,11.8,8.5,16c1.2,1.2-1.8,11-1.8,11s9.5-4.9,11.8-3.9c6.2,2.9,13.4,3.8,20.6,2.3
		c17.8-3.8,29.2-21.3,25.4-39.2c-3.8-17.8-21.3-29.2-39.2-25.4C-134.4,182.9-145.7,200.4-141.9,218.2z"/>
	<circle class="st2" cx="-95" cy="211.8" r="4.1"/>
	<circle class="st2" cx="-110" cy="211.8" r="4.1"/>
	<circle class="st2" cx="-125" cy="211.8" r="4.1"/>
</g>
<g id="Layer_2" class="st3">
	<g class="st4">
		<g>
			<path class="st5" d="M-70.7,212.2c-1.6-2.3-4.8-2.9-7.1-1.3l-6.1,3.9h-0.6v0.6c-0.6,0-3.5-0.6-10.9-10.9
				c-6.4-9.7-6.4-13.5-6.1-14.8c0-0.3,0.3-0.6,0.3-0.6l6.4-4.2c2.3-1.3,3.2-4.5,1.6-7.1l-9-12.9v-0.3c0,0-1.6-1.3-4.2-1.3
				s-5.1,1-8,3.2l-0.6,0.3c-5.5,8.4-6.8,18.3-6.8,19v0.3v0.3c2.3,10.6,7.4,19.3,11.3,25.1l0,0l2.9,4.5l0,0
				c4.2,6.1,10,13.5,18.7,19.3l0.3,0.3c0.3,0,5.8,1.9,12.9,1.9c2.6,0,4.8-0.3,7.1-0.6l0.6-0.3c8-4.8,6.8-10.3,6.4-10.6L-70.7,212.2z
				 M-69.4,233.5c-1.9,0.3-3.9,0.6-6.1,0.6c-5.8,0-10.6-1.3-11.6-1.6c-8.7-6.1-14.2-13.5-18.7-19.6l-1-1.3
				c-3.5-5.8-9.7-14.8-11.9-25.7c0.3-1.6,1.6-10,6.1-16.7c5.1-3.5,7.4-2.3,8-1.9l8.7,12.9c0.6,1,0.3,1.9-0.6,2.6l-6.1,3.5
				c-0.3,0.3-1.3,1-1.9,2.3c-1.3,3.5,0.6,9.3,6.4,18c5.8,8.4,10,12.2,13.5,12.2c1.3,0,2.3-0.6,2.6-1.3l5.8-3.9
				c1-0.6,1.9-0.3,2.6,0.6l9,12.9C-64.6,227.7-64.6,230.6-69.4,233.5z"/>
			<path class="st5" d="M-52,174.9c-4.8-6.8-11.9-10.6-20.3-11.3c-1,0-1.6,0.6-1.6,1.6s0.6,1.6,1.6,1.6c7.1,0.3,13.5,3.9,17.7,9.7
				c3.9,5.5,5.1,12.5,3.2,19.3c-0.3,1,0.3,1.6,1.3,1.9h0.3c0.6,0,1.3-0.3,1.6-1.3C-45.9,189.4-47.5,181.4-52,174.9z"/>
			<path class="st5" d="M-75.5,173.6c-1,0-1.6,0.6-1.6,1.6s0.6,1.6,1.6,1.6c4.8,0.3,9,2.6,11.6,6.4c2.6,3.5,3.2,8.4,2.3,12.5
				c-0.3,1,0.3,1.6,1.3,1.9h0.3c0.6,0,1.3-0.3,1.6-1.3c1.3-5.1,0.3-10.9-2.6-15.4C-64.6,176.5-69.7,173.6-75.5,173.6z"/>
			<path class="st5" d="M-79.1,187.1c2.3,0,4.2,1.3,5.5,2.9s1.6,3.9,1,5.8c-0.3,1,0.3,1.6,1,1.9h0.3c0.6,0,1.3-0.3,1.6-1.3
				c0.6-2.9,0.3-6.1-1.6-8.4c-1.9-2.6-4.5-4.2-7.7-4.2c-1,0-1.6,0.6-1.6,1.6C-80.7,186.5-80,187.1-79.1,187.1z"/>
		</g>
	</g>
</g>
<g>
	<path class="st1" d="M-25.7,195.3c-1.6,7.3-5.1,13.7-9.9,18.6c-1.3,1.4,2,12.7,2,12.7s-11.1-5.7-13.7-4.5
		c-7.2,3.3-15.6,4.4-23.9,2.6c-20.7-4.4-33.9-24.8-29.5-45.5c4.4-20.7,24.8-33.9,45.5-29.5S-21.3,174.6-25.7,195.3z"/>
	<g id="Layer_2_1_">
		<g>
			<g>
				<path class="st6" d="M-55.3,196.4c-1-1.4-2.9-1.7-4.2-0.8l-3.6,2.3h-0.4v0.4c-0.4,0-2.1-0.4-6.5-6.5c-3.8-5.8-3.8-8-3.6-8.8
					c0-0.2,0.2-0.4,0.2-0.4l3.8-2.5c1.4-0.8,1.9-2.7,1-4.2l-5.4-7.7v-0.2c0,0-1-0.8-2.5-0.8s-3,0.6-4.8,1.9l-0.4,0.2
					c-3.3,5-4,10.9-4,11.3v0.2v0.2c1.4,6.3,4.4,11.5,6.7,14.9l0,0l1.7,2.7l0,0c2.5,3.6,5.9,8,11.1,11.5l0.2,0.2
					c0.2,0,3.4,1.1,7.7,1.1c1.5,0,2.9-0.2,4.2-0.4l0.4-0.2c4.8-2.9,4-6.1,3.8-6.3L-55.3,196.4z M-54.5,209.1
					c-1.1,0.2-2.3,0.4-3.6,0.4c-3.4,0-6.3-0.8-6.9-1c-5.2-3.6-8.4-8-11.1-11.7l-0.6-0.8c-2.1-3.4-5.8-8.8-7.1-15.3
					c0.2-1,1-5.9,3.6-9.9c3-2.1,4.4-1.4,4.8-1.1l5.2,7.7c0.4,0.6,0.2,1.1-0.4,1.5l-3.6,2.1c-0.2,0.2-0.8,0.6-1.1,1.4
					c-0.8,2.1,0.4,5.5,3.8,10.7c3.4,5,5.9,7.3,8,7.3c0.8,0,1.4-0.4,1.5-0.8l3.4-2.3c0.6-0.4,1.1-0.2,1.5,0.4l5.4,7.7
					C-51.7,205.6-51.7,207.4-54.5,209.1z"/>
				<path class="st6" d="M-44.2,174.2c-2.9-4-7.1-6.3-12.1-6.7c-0.6,0-1,0.4-1,1s0.4,1,1,1c4.2,0.2,8,2.3,10.5,5.8
					c2.3,3.3,3,7.4,1.9,11.5c-0.2,0.6,0.2,1,0.8,1.1h0.2c0.4,0,0.8-0.2,1-0.8C-40.5,182.9-41.5,178.1-44.2,174.2z"/>
				<path class="st6" d="M-58.1,173.5c-0.6,0-1,0.4-1,1s0.4,1,1,1c2.9,0.2,5.4,1.5,6.9,3.8c1.5,2.1,1.9,5,1.4,7.4
					c-0.2,0.6,0.2,1,0.8,1.1h0.2c0.4,0,0.8-0.2,1-0.8c0.8-3,0.2-6.5-1.5-9.2C-51.7,175.2-54.7,173.5-58.1,173.5z"/>
				<path class="st6" d="M-60.3,181.5c1.4,0,2.5,0.8,3.3,1.7s1,2.3,0.6,3.4c-0.2,0.6,0.2,1,0.6,1.1h0.2c0.4,0,0.8-0.2,1-0.8
					c0.4-1.7,0.2-3.6-1-5c-1.1-1.5-2.7-2.5-4.6-2.5c-0.6,0-1,0.4-1,1C-61.2,181.1-60.8,181.5-60.3,181.5z"/>
			</g>
		</g>
	</g>
</g>
</svg>
